<svg id="a" xmlns="http://www.w3.org/2000/svg" xmlns:xlink="http://www.w3.org/1999/xlink" viewBox="0 0 176.19 144" width="176.19"  height="144" ><defs><style>.c{fill:url(#b);}.d{fill:#fff;}.e{fill:#f8d147;}.e,.f{stroke:#282827;stroke-miterlimit:10;stroke-width:4.35px;}.f{fill:none;}</style><linearGradient id="b" x1="69.84" y1="137.41" x2="133.79" y2="66.6" gradientTransform="translate(0 146) scale(1 -1)" gradientUnits="userSpaceOnUse"><stop offset="0" stop-color="#f8d147"/><stop offset="1" stop-color="#f8d147" stop-opacity="0"/></linearGradient></defs><path class="d" d="M102.8,122.92h29.19c3.39,0,6.66-1.26,9.15-3.54,2.49-2.28,4.04-5.41,4.32-8.76l3.56-45.87,9.95-4.94c2.28-1.13,4.11-3.01,5.18-5.31,1.07-2.3,1.31-4.9,.7-7.36l-3.41-13.53c-.97-3.88-3.22-7.32-6.38-9.78-3.17-2.46-7.07-3.79-11.09-3.79h-30.65"/><path class="c" d="M102.72,123.68h29.19c3.39,0,6.66-1.26,9.15-3.54,2.5-2.28,4.04-5.41,4.32-8.76l3.55-45.87,9.95-4.94c2.29-1.13,4.11-3.01,5.18-5.31,1.07-2.3,1.31-4.9,.69-7.36l-3.4-13.53c-.97-3.88-3.22-7.32-6.38-9.78-3.17-2.46-7.07-3.79-11.09-3.79h-30.65"/><path class="f" d="M102.72,123.68h29.19c3.39,0,6.66-1.26,9.15-3.54,2.5-2.28,4.04-5.41,4.32-8.76l3.55-45.87,9.95-4.94c2.29-1.13,4.11-3.01,5.18-5.31,1.07-2.3,1.31-4.9,.69-7.36l-3.4-13.53c-.97-3.88-3.22-7.32-6.38-9.78-3.17-2.46-7.07-3.79-11.09-3.79h-30.65"/><path class="d" d="M73.24,123.68h29.19c3.39,0,6.66-1.26,9.15-3.54,2.49-2.28,4.04-5.41,4.32-8.76l3.56-45.87,9.95-4.94c2.28-1.13,4.11-3.01,5.18-5.31,1.07-2.3,1.31-4.9,.7-7.36l-3.41-13.53c-.97-3.88-3.22-7.32-6.38-9.78-3.17-2.46-7.07-3.79-11.09-3.79h-30.65"/><path class="f" d="M73.24,123.68h29.19c3.39,0,6.66-1.26,9.15-3.54,2.49-2.28,4.04-5.41,4.32-8.76l3.56-45.87,9.95-4.94c2.28-1.13,4.11-3.01,5.18-5.31,1.07-2.3,1.31-4.9,.7-7.36l-3.41-13.53c-.97-3.88-3.22-7.32-6.38-9.78-3.17-2.46-7.07-3.79-11.09-3.79h-30.65"/><path class="e" d="M86.11,20.78h-12.87c0,3.56-1.42,6.97-3.96,9.49-2.53,2.52-5.97,3.93-9.55,3.93s-7.02-1.41-9.55-3.93c-2.53-2.52-3.96-5.93-3.96-9.49h-12.95c-4.02,0-7.92,1.33-11.09,3.79-3.17,2.46-5.41,5.9-6.38,9.78l-3.4,13.53c-.62,2.46-.37,5.06,.7,7.36,1.07,2.3,2.9,4.18,5.18,5.31l9.95,4.94,3.37,45.87c.28,3.36,1.82,6.48,4.32,8.76,2.5,2.28,5.76,3.54,9.15,3.54h29.19c3.39,0,6.65-1.26,9.14-3.54,2.49-2.28,4.02-5.41,4.3-8.76l3.55-45.87,9.95-4.94c2.28-1.13,4.11-3.01,5.18-5.31,1.07-2.3,1.31-4.9,.7-7.36l-3.41-13.53c-.97-3.89-3.22-7.35-6.41-9.81-3.18-2.46-7.11-3.79-11.14-3.76Z"/></svg>