<svg id="a" xmlns="http://www.w3.org/2000/svg" xmlns:xlink="http://www.w3.org/1999/xlink" viewBox="0 0 120.77 74.7" width="120.77"  height="74.7" ><defs><style>.c{fill:url(#b);}.d{fill:#fff;}.e{fill:#f8d147;stroke-width:4.35px;}.e,.f{stroke:#282827;stroke-miterlimit:10;}.f{fill:none;stroke-width:4px;}</style><linearGradient id="b" x1="2" y1="25.37" x2="99.8" y2="25.37" gradientTransform="matrix(1, 0, 0, 1, 0, 0)" gradientUnits="userSpaceOnUse"><stop offset="0" stop-color="#f8d147"/><stop offset=".01" stop-color="#f8d147" stop-opacity=".95"/><stop offset=".09" stop-color="#f8d147" stop-opacity=".76"/><stop offset=".16" stop-color="#f8d147" stop-opacity=".58"/><stop offset=".24" stop-color="#f8d147" stop-opacity=".42"/><stop offset=".33" stop-color="#f8d147" stop-opacity=".29"/><stop offset=".42" stop-color="#f8d147" stop-opacity=".18"/><stop offset=".52" stop-color="#f8d147" stop-opacity=".1"/><stop offset=".63" stop-color="#f8d147" stop-opacity=".04"/><stop offset=".77" stop-color="#f8d147" stop-opacity=".01"/><stop offset="1" stop-color="#f8d147" stop-opacity="0"/></linearGradient></defs><path class="d" d="M9.13,50.85c-4.53,0-7.9-4.11-7.12-8.57C6.06,19.19,26.22,1.64,50.48,1.64c27.18,0,49.22,22.03,49.22,49.22H9.13Z"/><path class="e" d="M99.8,51.22c4.94,2.81,33.49,21.32,9,21.3-7.88,0-22.38,0-22.38,0,0,0-20.73,1.13-34.57-20.57l47.95-.73Z"/><path class="c" d="M9.23,49.98c-4.53,0-7.9-4.11-7.12-8.57C6.17,18.31,26.33,.76,50.59,.76c27.18,0,49.22,22.03,49.22,49.22H9.23Z"/><path class="f" d="M9.23,51.22c-4.53,0-7.9-4.11-7.12-8.57C6.17,19.55,26.33,2,50.59,2c27.18,0,49.22,22.03,49.22,49.22H9.23Z"/><path class="f" d="M50.59,2S28.64,14.86,28.64,51.22"/><path class="f" d="M50.59,2s21.95,12.86,21.95,49.22"/><path class="f" d="M99.8,51.22c4.94,2.81,33.49,21.32,9,21.3-7.88,0-22.38,0-22.38,0,0,0-20.73,1.13-34.57-20.57"/></svg>