<svg id="a" xmlns="http://www.w3.org/2000/svg" xmlns:xlink="http://www.w3.org/1999/xlink" viewBox="0 0 144 144" width="144"  height="144" ><defs><style>.c{fill:url(#b);}.d,.e,.f,.g{stroke:#282827;}.d,.e,.g{fill:none;}.d,.f{stroke-width:4.37px;}.d,.f,.g{stroke-linejoin:round;}.e{stroke-miterlimit:10;stroke-width:4.37px;}.h,.f{fill:#f8d146;}.i{fill:#fff;}.g{stroke-width:4.73px;}</style><linearGradient id="b" x1="24.74" y1="79.27" x2="119.98" y2="79.27" gradientTransform="matrix(1, 0, 0, 1, 0, 0)" gradientUnits="userSpaceOnUse"><stop offset="0" stop-color="#f8d147"/><stop offset=".06" stop-color="#f8d147" stop-opacity=".89"/><stop offset=".21" stop-color="#f8d147" stop-opacity=".65"/><stop offset=".35" stop-color="#f8d147" stop-opacity=".45"/><stop offset=".49" stop-color="#f8d147" stop-opacity=".29"/><stop offset=".63" stop-color="#f8d147" stop-opacity=".16"/><stop offset=".76" stop-color="#f8d147" stop-opacity=".07"/><stop offset=".89" stop-color="#f8d147" stop-opacity=".02"/><stop offset="1" stop-color="#f8d147" stop-opacity="0"/></linearGradient></defs><path class="h" d="M49.89,30.42c-1.99-6.14,3.24-14.16,8.36-17.68,7.48-5.13,16.18-4.86,24.6-1.47,6.86,2.76,13.48,11.85,11.97,18.72-14.74-8.43-29.72-8.13-44.93,.43Z"/><path class="i" d="M119.51,94.86l-7.1-49.7c-.99-4,0-5.92-2.37-8.28-3.27-2.53-6.51-5.94-10.65-5.92l-8.28-2.37c0,3.66-4.5,8.07-7.1,10.65-2.37,1.18-7.8,2.68-11.48,2.68s-6.27-.31-9.82-2.68c-3.55-2.37-10.65-6.99-10.65-10.65l-7.1,2.37c-3.55,2.37-3.85,1.02-7.1,3.55-3.25,2.53-4.92,5.49-5.92,9.47l-7.1,61.53c1.18,5.92,0,8.28,5.92,10.65l11.83-1.18,.91-.02,.12,3.09c.29,3.23,1.87,6.24,4.44,8.44,2.56,2.19,5.92,3.41,9.4,3.41h29.98c3.48,0,6.84-1.22,9.4-3.41,2.56-2.19,4.15-5.21,4.44-8.44l.16-4.25h10.97c8.65-1.79,8.17-13.42,7.1-18.94Z"/><path class="e" d="M50.03,31.55c-1.99-6.14,3.24-14.16,8.36-17.68,7.48-5.13,16.18-4.86,24.6-1.47,6.86,2.76,13.48,11.85,11.97,18.72"/><path class="c" d="M119.4,94.89l-7.1-49.7c-.99-4,0-5.92-2.37-8.28-3.27-2.53-6.51-5.94-10.65-5.92l-8.28-2.37c0,3.66-4.5,8.07-7.1,10.65-2.37,1.18-7.8,2.68-11.48,2.68s-6.27-.31-9.82-2.68c-3.55-2.37-10.65-6.99-10.65-10.65l-7.1,2.37c-3.55,2.37-3.85,1.02-7.1,3.55-3.25,2.53-4.92,5.49-5.92,9.47l-7.1,61.53c1.18,5.92,0,8.28,5.92,10.65l11.83-1.18,.91-.02,.12,3.09c.29,3.23,1.87,6.24,4.44,8.44,2.56,2.19,5.92,3.41,9.4,3.41h29.98c3.48,0,6.84-1.22,9.4-3.41,2.56-2.19,4.15-5.21,4.44-8.44l.16-4.25h10.97c8.65-1.79,8.17-13.42,7.1-18.94Z"/><path class="g" d="M101.79,113.82h9.47c8.2-.83,7.1-5.92,7.36-12.99-2.07-17.44-4.13-34.87-6.19-52.31-.52-4.42-1.17-9.12-4.06-12.5-2.25-2.62-5.75-3.91-8.93-5.03-1.42-.5-7.4-2.16-8.28,0-2.64,6.47-10.24,10.34-17.17,10.47-10.05,.18-14.42-3.93-19.61-9.29-.66-.69-1.38-1.62-2.25-2.05-1-.48-1.85-.17-2.93-.03-1.72,.22-3.4,.68-5,1.34-5.07,2.1-8.72,6.09-10.72,11.17s-2.13,11.12-2.69,16.71l-2.11,20.74-1.89,18.6-.58,5.72c-.14,5.89-.14,11.81,8.46,11.45l8.13-.48"/><path class="g" d="M102.93,66.86l-1.83,50.33c-.29,3.45-1.87,6.66-4.44,9-2.56,2.34-5.92,3.64-9.4,3.64h-29.98c-3.48,0-6.84-1.3-9.4-3.64-2.56-2.34-4.15-5.55-4.44-9l-1.83-50.33"/><polygon class="i" points="59.37 89.06 53.25 113.38 91.53 113.38 84.86 89.06 59.37 89.06"/><polygon class="f" points="59.37 89.07 53.25 113.38 91.53 113.38 84.86 89.07 59.37 89.07"/><line class="d" x1="62.61" y1="38.09" x2="62.61" y2="61.75"/><line class="d" x1="82.23" y1="39.45" x2="82.23" y2="61.75"/><path class="g" d="M51.96,29.8c5.92-7.1,31.95-9.47,41.42,0"/></svg>