<svg id="a" xmlns="http://www.w3.org/2000/svg" xmlns:xlink="http://www.w3.org/1999/xlink" viewBox="0 0 144 144" width="144"  height="144" ><defs><style>.c{fill:url(#b);}.d{fill:#fff;}.e,.f{stroke-width:4.88px;}.e,.f,.g{fill:none;stroke:#282827;}.e,.g{stroke-miterlimit:10;}.f{stroke-linejoin:round;}.g{stroke-width:4.3px;}</style><linearGradient id="b" x1="22.37" y1="71.81" x2="120.47" y2="71.81" gradientTransform="matrix(1, 0, 0, 1, 0, 0)" gradientUnits="userSpaceOnUse"><stop offset="0" stop-color="#f8d147"/><stop offset=".06" stop-color="#f8d147" stop-opacity=".89"/><stop offset=".21" stop-color="#f8d147" stop-opacity=".65"/><stop offset=".35" stop-color="#f8d147" stop-opacity=".45"/><stop offset=".49" stop-color="#f8d147" stop-opacity=".29"/><stop offset=".63" stop-color="#f8d147" stop-opacity=".16"/><stop offset=".76" stop-color="#f8d147" stop-opacity=".07"/><stop offset=".89" stop-color="#f8d147" stop-opacity=".02"/><stop offset="1" stop-color="#f8d147" stop-opacity="0"/></linearGradient></defs><path class="d" d="M101.28,107.02l10.96-.39c8.91-1.83,8.41-13.82,7.31-19.5l-7.31-51.19c-1.02-4.12,0-6.09-2.44-8.53-3.37-2.6-6.7-6.12-10.97-6.09l-13.96-1.1c0,3.77-1.44,4.55-4.12,7.21-2.44,1.22-5.48,3.09-9.27,3.09s-5.61-.65-9.27-3.09c-3.66-2.44-5.15-7.21-5.15-7.21l-14.3,1.1c-3.66,2.44-3.96,1.05-7.31,3.66-3.35,2.6-5.07,5.65-6.09,9.75l-7.31,63.38c1.22,6.09,0,8.53,6.09,10.97l12.19-1.22s1.52,9.47,7.17,12.58,41.65,2.82,46.45,.85,7.34-14.26,7.34-14.26Z"/><path class="c" d="M101.61,107.34l10.96-.39c8.91-1.83,8.41-13.82,7.31-19.5l-7.31-51.19c-1.02-4.12,0-6.09-2.44-8.53-3.37-2.6-6.7-6.12-10.97-6.09l-13.96-1.1c0,3.77-1.44,4.55-4.12,7.21-2.44,1.22-5.48,3.09-9.27,3.09s-5.61-.65-9.27-3.09c-3.66-2.44-5.15-7.21-5.15-7.21l-14.3,1.1c-3.66,2.44-3.96,1.05-7.31,3.66-3.35,2.6-5.07,5.65-6.09,9.75l-7.31,63.38c1.22,6.09,0,8.53,6.09,10.97l12.19-1.22s1.52,9.47,7.17,12.58,41.65,2.82,46.45,.85,7.34-14.26,7.34-14.26Z"/><path class="g" d="M102.99,62.31l-1.89,48.6c-.3,3.33-1.93,6.43-4.57,8.69-2.64,2.26-6.1,3.51-9.68,3.51h-30.88c-3.59,0-7.04-1.25-9.68-3.51-2.64-2.26-4.27-5.36-4.57-8.69l-1.89-48.6"/><path class="e" d="M101.74,106.53h9.75c8.45-.86,7.31-6.09,7.58-13.38-2.13-17.96-4.25-35.92-6.38-53.88-.54-4.55-1.2-9.4-4.19-12.88-2.31-2.7-5.74-4.87-9.2-5.18-6.37-.58-14.61-.58-14.61-.58,0,0-2.06,9.27-13.39,9.27s-13.39-9.27-13.39-9.27c-1.78,0-12.36,0-15.5,1.04-5.37,1.78-8.98,6.28-11.04,11.51-2.15,5.47-2.19,11.45-2.78,17.21l-2.17,21.36c-.65,6.39-1.3,12.77-1.95,19.16-.2,1.97-.4,3.93-.6,5.9-.14,6.07-.14,12.16,8.72,11.8l8.38-.49"/><path class="f" d="M102.91,58.16l-1.89,51.84c-.3,3.55-1.93,6.86-4.57,9.27-2.64,2.41-6.1,3.75-9.68,3.75h-30.88c-3.59,0-7.04-1.34-9.68-3.75-2.64-2.41-4.27-5.72-4.57-9.27l-1.89-51.84"/></svg>