<svg version="1.1" id="Layer_1" xmlns="http://www.w3.org/2000/svg" xmlns:xlink="http://www.w3.org/1999/xlink" x="0px" y="0px" viewBox="0 0 144 144" style="enable-background:new 0 0 144 144;" xml:space="preserve" width="144"  height="144" >
<style type="text/css">
	.st0{fill:#FFFFFF;}
	.st1{fill:url(#SVGID_1_);stroke:#282827;stroke-width:4.3;stroke-miterlimit:10;}
	.st2{fill:url(#SVGID_00000060739123979953707710000015050439246360656805_);}
	.st3{fill:none;stroke:#282827;stroke-width:4.3509;stroke-miterlimit:10;}
	.st4{fill:#F8D147;stroke:#282827;stroke-width:4.3509;stroke-miterlimit:10;}
	.st5{fill:none;stroke:#282827;stroke-width:4.3;stroke-miterlimit:10;}
	
		.st6{fill:url(#SVGID_00000044148690546786901030000007765225463339053204_);stroke:#282827;stroke-width:4.3;stroke-miterlimit:10;}
	.st7{fill:none;stroke:#282827;stroke-width:4;stroke-miterlimit:10;}
	.st8{fill:#F8D146;}
	.st9{fill:none;stroke:#282827;stroke-width:4.3689;stroke-miterlimit:10;}
	.st10{fill:url(#SVGID_00000137092011325073078360000007987551203225122191_);}
	.st11{fill:none;stroke:#282827;stroke-width:4.7333;stroke-linejoin:round;stroke-miterlimit:10;}
	.st12{fill:#F8D146;stroke:#282827;stroke-width:4.3694;stroke-linejoin:round;stroke-miterlimit:10;}
	.st13{fill:none;stroke:#282827;stroke-width:4.3694;stroke-linejoin:round;stroke-miterlimit:10;}
</style>
<path class="st0" d="M102.5,20.6H86.7c0,3.6-0.8,9.9-4,13.5c-2.5,2.5-6,3.9-9.6,3.9c-3.6,0-7-1.4-9.6-3.9c-2.5-2.5-4-9.9-4-13.5  H43.7l-2.1,44.7l3.4,45.9c0.3,3.4,1.8,6.5,4.3,8.8c2.5,2.3,5.8,3.5,9.2,3.5h29.2c3.4,0,6.6-1.3,9.1-3.5c2.5-2.3,4-5.4,4.3-8.8  l3.6-45.9L102.5,20.6z"/>
<linearGradient id="SVGID_1_" gradientUnits="userSpaceOnUse" x1="41.573" y1="72.1423" x2="104.587" y2="72.1423">
	<stop offset="0" style="stop-color:#F8D147"/>
	<stop offset="1" style="stop-color:#F8D147;stop-opacity:0"/>
</linearGradient>
<path class="st1" d="M102.5,20.7H86.6c0,3.6-0.8,9.9-4,13.5c-2.5,2.5-6,3.9-9.6,3.9c-3.6,0-7-1.4-9.6-3.9c-2.5-2.5-4-9.9-4-13.5  H43.6l-2.1,44.7l3.4,45.9c0.3,3.4,1.8,6.5,4.3,8.8c2.5,2.3,5.8,3.5,9.2,3.5h29.2c3.4,0,6.6-1.3,9.1-3.5c2.5-2.3,4-5.4,4.3-8.8  l3.6-45.9L102.5,20.7z"/>
</svg>