<svg id="a" xmlns="http://www.w3.org/2000/svg" xmlns:xlink="http://www.w3.org/1999/xlink" viewBox="0 0 144 144" width="144"  height="144" ><defs><style>.c{fill:url(#b);stroke-width:4.3px;}.c,.d{stroke:#282827;stroke-miterlimit:10;}.e{fill:#fff;}.d{fill:none;stroke-width:4.35px;}</style><linearGradient id="b" x1="25.13" y1="72.6" x2="120.47" y2="72.6" gradientTransform="matrix(1, 0, 0, 1, 0, 0)" gradientUnits="userSpaceOnUse"><stop offset="0" stop-color="#f8d147"/><stop offset=".06" stop-color="#f8d147" stop-opacity=".89"/><stop offset=".21" stop-color="#f8d147" stop-opacity=".65"/><stop offset=".35" stop-color="#f8d147" stop-opacity=".45"/><stop offset=".49" stop-color="#f8d147" stop-opacity=".29"/><stop offset=".63" stop-color="#f8d147" stop-opacity=".16"/><stop offset=".76" stop-color="#f8d147" stop-opacity=".07"/><stop offset=".89" stop-color="#f8d147" stop-opacity=".02"/><stop offset="1" stop-color="#f8d147" stop-opacity="0"/></linearGradient></defs><path class="e" d="M99.33,20.97h-12.87c0,3.56-1.42,6.97-3.96,9.49-2.53,2.52-5.97,3.93-9.55,3.93s-7.02-1.41-9.55-3.93c-2.53-2.52-3.96-5.93-3.96-9.49h-12.95c-4.02,0-7.92,1.33-11.09,3.79-3.17,2.46-5.41,5.9-6.38,9.78l-3.4,13.53c-.62,2.46-.37,5.06,.7,7.36,1.07,2.3,2.9,4.18,5.18,5.31l9.95,4.94,3.37,45.87c.28,3.36,1.82,6.48,4.32,8.76,2.5,2.28,5.76,3.54,9.15,3.54h29.19c3.39,0,6.65-1.26,9.14-3.54,2.49-2.28,4.02-5.41,4.3-8.76l3.55-45.87,9.95-4.94c2.28-1.13,4.11-3.01,5.18-5.31,1.07-2.3,1.31-4.9,.7-7.36l-3.41-13.53c-.97-3.89-3.22-7.35-6.41-9.81-3.18-2.46-7.11-3.79-11.14-3.76Z"/><path class="c" d="M99.18,21.15h-12.87c0,3.56-1.42,6.97-3.96,9.49-2.53,2.52-5.97,3.93-9.55,3.93s-7.02-1.41-9.55-3.93c-2.53-2.52-3.96-5.93-3.96-9.49h-12.95c-4.02,0-7.92,1.33-11.09,3.79-3.17,2.46-5.41,5.9-6.38,9.78l-3.4,13.53c-.62,2.46-.37,5.06,.7,7.36,1.07,2.3,2.9,4.18,5.18,5.31l9.95,4.94,3.37,45.87c.28,3.36,1.82,6.48,4.32,8.76,2.5,2.28,5.76,3.54,9.15,3.54h29.19c3.39,0,6.65-1.26,9.14-3.54,2.49-2.28,4.02-5.41,4.3-8.76l3.55-45.87,9.95-4.94c2.28-1.13,4.11-3.01,5.18-5.31,1.07-2.3,1.31-4.9,.7-7.36l-3.41-13.53c-.97-3.89-3.22-7.35-6.41-9.81-3.18-2.46-7.11-3.79-11.14-3.76Z"/><path class="d" d="M99.18,21.15h-12.87c0,3.56-1.42,6.97-3.96,9.49-2.53,2.52-5.97,3.93-9.55,3.93s-7.02-1.41-9.55-3.93c-2.53-2.52-3.96-5.93-3.96-9.49h-12.95c-4.02,0-7.92,1.33-11.09,3.79-3.17,2.46-5.41,5.9-6.38,9.78l-3.4,13.53c-.62,2.46-.37,5.06,.7,7.36,1.07,2.3,2.9,4.18,5.18,5.31l9.95,4.94,3.37,45.87c.28,3.36,1.82,6.48,4.32,8.76,2.5,2.28,5.76,3.54,9.15,3.54h29.19c3.39,0,6.65-1.26,9.14-3.54,2.49-2.28,4.02-5.41,4.3-8.76l3.55-45.87,9.95-4.94c2.28-1.13,4.11-3.01,5.18-5.31,1.07-2.3,1.31-4.9,.7-7.36l-3.41-13.53c-.97-3.89-3.22-7.35-6.41-9.81-3.18-2.46-7.11-3.79-11.14-3.76Z"/></svg>